
<svg xmlns="http://www.w3.org/2000/svg" version="1.1" xmlns:xlink="http://www.w3.org/1999/xlink" preserveAspectRatio="none" x="0px" y="0px" width="132px" height="30px" viewBox="0 0 132 30">
<defs>
<g id="Layer0_0_FILL">
<path fill="#00FF00" stroke="none" d="
M 30.4 19.9
Q 29.625 14.146875 23.6 3.35
L 14.7 15.45 5.35 2.15 4.95 2.15
Q 2.00703125 12.2427734375 1.75 19.4 1.49296875 26.5572265625 5.05 26.15 5.95 22.2 9.2 17.65
L 14.7 25.25 20.7 15.8 27.1 26.15
Q 31.225 25.653125 30.4 19.9 Z"/>
</g>

<g id="Layer0_1_FILL">
<path fill="#000000" stroke="none" d="
M 42.35 10.25
Q 43.6 10.25 44.55 10.65 45.6 11.15 46.2 11.8
L 48.7 9.25
Q 47.5 8.1 45.95 7.45 44.25 6.8 42.35 6.8 40.55 6.8 38.85 7.5 37.4 8 36.05 9.3 34.75 10.6 34.15 12.1 33.5 13.6 33.5 15.55 33.5 17.4 34.15 19 34.8 20.5 36.05 21.75 37.3 23 38.85 23.65 40.65 24.3 42.4 24.3 44.4 24.3 46 23.65 47.6 22.95 48.8 21.85
L 46.3 19.3
Q 45.5 20.1 44.6 20.45 43.65 20.85 42.35 20.85 41.15 20.85 40.35 20.45 39.45 20.1 38.75 19.4 38.1 18.75 37.7 17.7 37.35 16.8 37.35 15.55 37.35 14.25 37.7 13.35 38.1 12.4 38.75 11.7 39.45 10.95 40.35 10.65 41.3 10.25 42.35 10.25
M 61.95 24
L 61.95 12.35 58.35 12.35 58.35 13.3
Q 57.9 12.9 57.25 12.6 56.4 12.1 55.15 12.1 53.6 12.1 52.25 12.9 51.05 13.75 50.3 15.05 49.55 16.5 49.55 18.2 49.55 19.95 50.3 21.3 51.05 22.7 52.25 23.45 53.5 24.25 55.15 24.25 56.35 24.25 57.3 23.8 57.9 23.5 58.35 23.1
L 58.35 24 61.95 24
M 58.2 16.75
Q 58.5 17.35 58.5 18.2 58.5 19.35 57.8 20.2 57.05 20.95 55.9 20.95 55.1 20.95 54.55 20.6 54 20.25 53.6 19.6 53.3 19 53.3 18.2 53.3 17.35 53.6 16.75 54.05 16.05 54.55 15.8 55.1 15.45 55.9 15.45 56.75 15.45 57.25 15.8 57.75 16.05 58.2 16.75
M 68.25 12.35
L 64.55 12.35 64.55 24 68.25 24 68.25 17.45
Q 68.3 16.4 68.75 15.95 69.3 15.35 70.2 15.35 70.7 15.35 71.05 15.5 71.2 15.55 71.65 15.9
L 73.8 13.15
Q 73.4 12.65 72.7 12.4 72.1 12.1 71.25 12.1 69.3 12.1 68.25 13.25
L 68.25 12.35
M 82.9 15.5
L 82.9 12.35 80.25 12.35 80.25 7.55 76.55 7.55 76.55 12.35 73.95 12.35 73.95 15.5 76.55 15.5 76.55 24 80.25 24 80.25 15.5 82.9 15.5 Z"/>
</g>

<path id="Layer0_0_1_STROKES" stroke="#000000" stroke-width="1" stroke-linejoin="round" stroke-linecap="round" fill="none" d="
M 5.35 2.15
L 14.7 15.45 23.6 3.35
Q 29.625 14.146875 30.425 19.9 31.225 25.653125 27.1 26.15
L 20.7 15.8 14.7 25.25 9.2 17.65
Q 5.95 22.2 5.05 26.15 1.49296875 26.5572265625 1.75 19.4 2.00703125 12.2427734375 4.95 2.15"/>
</defs>

<g transform="matrix( 1, 0, 0, 1, 0,0) ">
<use xlink:href="#Layer0_0_FILL"/>

<use xlink:href="#Layer0_0_1_STROKES"/>
</g>

<g transform="matrix( 1, 0, 0, 1, 0,0) ">
<use xlink:href="#Layer0_1_FILL"/>
</g>
</svg>
